<svg width="39" height="39" viewBox="0 0 39 39" fill="none" xmlns="http://www.w3.org/2000/svg">
<circle cx="19.5" cy="19.5" r="19.5" fill="#7278BC"/>
<path d="M23.845 11.0035L21.6404 11C19.1637 11 17.5632 12.6421 17.5632 15.1837V17.1127H15.3466C15.1551 17.1127 15 17.268 15 17.4595V20.2544C15 20.4459 15.1553 20.601 15.3466 20.601H17.5632V27.6534C17.5632 27.8449 17.7183 28 17.9098 28H20.8018C20.9933 28 21.1484 27.8447 21.1484 27.6534V20.601H23.7401C23.9316 20.601 24.0867 20.4459 24.0867 20.2544L24.0878 17.4595C24.0878 17.3675 24.0512 17.2795 23.9863 17.2144C23.9214 17.1493 23.8329 17.1127 23.741 17.1127H21.1484V15.4775C21.1484 14.6915 21.3357 14.2925 22.3595 14.2925L23.8446 14.292C24.036 14.292 24.1911 14.1367 24.1911 13.9454V11.3502C24.1911 11.159 24.0361 11.0039 23.845 11.0035Z" fill="white"/>
</svg>
