<svg width="39" height="39" viewBox="0 0 39 39" fill="none" xmlns="http://www.w3.org/2000/svg">
<circle cx="19.5" cy="19.5" r="19.5" fill="#7278BC"/>
<path d="M19.125 17.5V20.75H23.7221C23.051 22.6415 21.244 24 19.125 24C16.4372 24 14.25 21.8128 14.25 19.125C14.25 16.4372 16.4372 14.25 19.125 14.25C20.2901 14.25 21.4114 14.6676 22.2824 15.4265L24.4176 12.976C22.9551 11.702 21.0766 11 19.125 11C14.6449 11 11 14.6449 11 19.125C11 23.6051 14.6449 27.25 19.125 27.25C23.6051 27.25 27.25 23.6051 27.25 19.125V17.5H19.125Z" fill="white"/>
</svg>
