<svg width="349" height="507" viewBox="0 0 349 507" fill="none" xmlns="http://www.w3.org/2000/svg">
<path d="M205.3 330.531L195.705 333.177L185.004 332.608V328.841L205.3 330.531Z" fill="#38171A"/>
<path d="M185.004 328.846V328.986L175.451 331.502L166.414 331.052L166.398 327.295L185.004 328.846Z" fill="#38171A"/>
<path d="M229.122 327.408V332.501L157.345 326.56V339.123H152.987L153.159 210.068L157.345 209.048V322.09L229.122 327.408Z" fill="#F98E99"/>
<path d="M149.762 339.912H144.615V441.667H149.762V339.912Z" fill="#F98E99"/>
<path d="M152.987 339.123H157.345L149.762 339.912H144.615L152.987 339.123Z" fill="#F98E99"/>
<path d="M166.43 327.317V339.123H157.345V326.56L166.43 327.317Z" fill="#38171A"/>
<path d="M223.686 332.039L214.16 334.685L205.263 333.252V330.531L223.686 332.039Z" fill="#38171A"/>
<path d="M182.138 227.429V323.984L185.149 324.172L184.821 227.429H182.138Z" fill="#F98E99"/>
<path d="M175.564 228.695L182.154 227.439L182.138 323.984L176.155 323.506L175.564 228.695Z" fill="#DB5461"/>
<path d="M202.397 231.77L202.408 325.46L205.413 325.68L205.279 231.18L202.397 231.77Z" fill="#F98E99"/>
<path d="M195.721 233.836L202.424 231.749L202.435 325.46L196.429 325.014L195.721 233.836Z" fill="#DB5461"/>
<path d="M220.82 232.849L220.831 326.941L223.831 327.075L223.697 232.688L220.82 232.849Z" fill="#F98E99"/>
<path d="M214.144 235.344L220.82 232.849L220.847 326.941L214.821 326.377L214.144 235.344Z" fill="#DB5461"/>
<path d="M185.004 332.608L195.742 333.177L195.887 349.947L185.004 349.32V332.608Z" fill="#8E3B44"/>
<path d="M214.16 334.685L205.263 333.177L205.3 349.947H214.246L214.16 334.685Z" fill="#8E3B44"/>
<path d="M185.004 349.502L195.887 349.947L196.15 398.483L185.004 398.665V349.502Z" fill="#FFCED3"/>
<path d="M205.3 349.947H214.236L214.568 398.52L205.375 398.96L205.3 349.947Z" fill="#FFCED3"/>
<path d="M144.631 441.651V339.906L152.976 339.134L153.159 210.073L36.0119 286.15L34.6542 435.142L144.631 441.651Z" fill="#DB5461"/>
<path d="M182.138 329.581L182.208 445L185.117 444.587L185.004 328.986L182.138 329.581Z" fill="#F98E99"/>
<path d="M185.004 398.665L196.145 398.483L196.741 439.188L184.698 440.433L185.004 398.665Z" fill="#8E3B44"/>
<path d="M175.28 331.503L182.154 329.415L182.208 445L175.983 441.168L175.28 331.503Z" fill="#DB5461"/>
<path d="M205.375 398.885L214.343 398.52L214.531 437.718L204.629 438.775L205.375 398.885Z" fill="#8E3B44"/>
<path d="M202.408 331.266L202.553 442.929L205.461 442.51L205.279 330.531L202.408 331.266Z" fill="#F98E99"/>
<path d="M195.721 333.188L202.424 331.1L202.553 442.928L196.327 439.188L195.721 333.188Z" fill="#DB5461"/>
<path d="M220.82 332.49L220.407 440.433L223.89 440.079L224.142 331.658L220.82 332.49Z" fill="#F98E99"/>
<path d="M214.144 334.696L220.847 332.608L220.407 440.433L214.482 437.707L214.144 334.696Z" fill="#DB5461"/>
<path d="M166.436 339.134V331.046L175.441 331.486L175.553 345.021L176.144 441.174H172.135L172.28 347.742L149.762 346.947V339.928L157.334 339.118L166.436 339.134Z" fill="#8E3B44"/>
<path d="M149.778 346.931L172.28 347.742L172.248 441.265L149.74 441.463L149.778 346.931Z" fill="#FFCED3"/>
<path d="M229.541 332.517L223.686 332.039V333.73L229.541 332.517Z" fill="#38171A"/>
<path d="M218.572 206.215L157.345 219.223L157.355 322.224L176.144 323.506L175.564 229.114L182.208 227.45L184.634 227.429L185.149 324.172L196.44 325.014L195.721 233.847L202.413 231.749H205.279L205.413 325.68L214.821 326.377L214.144 235.355L218.572 233.976V206.215Z" fill="#8E3B44"/>
<path d="M218.572 206.215L234.387 197.242V241.441L252.403 234.818V238.645L223.724 252.431L223.686 232.688L220.82 232.849L218.556 233.954L218.572 206.215Z" fill="#38171A"/>
<path d="M252.403 234.818L302.408 247.467V250.891L252.403 238.645V234.818Z" fill="#F98E99"/>
<path d="M302.408 250.891L281.892 258.131L234.934 247.043L252.403 238.645L302.408 250.891Z" fill="#38171A"/>
<path d="M234.387 197.242L241.149 193.823L302.612 237.416L298.255 246.421L252.403 234.818L234.387 241.441V197.242Z" fill="#8E3B44"/>
<path d="M184.746 249.641L195.85 250.274L196.145 298.922L185.004 298.729L184.746 249.641Z" fill="#FFCED3"/>
<path d="M205.375 250.532L214.236 251.546L214.568 299.271L205.375 299.078V250.532Z" fill="#FFCED3"/>
<path d="M116.135 247.323V317.92L128.489 314.834V312.333L120.235 314.668L120.53 250.097L128.472 245.686V241.865H125.526L116.135 247.323Z" fill="#38171A"/>
<path d="M128.489 245.702L120.546 250.118L120.251 314.646L128.489 312.333V245.702Z" fill="#FFCED3"/>
<path d="M89.0712 336.821V341.157L57.8914 339.134L45.3873 343.363V339.906L58.0363 334.685L89.0712 336.821Z" fill="#F98E99"/>
<path d="M45.3873 343.363L58.149 339.026L89.0712 341.194L73.0788 345.788L45.3873 343.363Z" fill="#38171A"/>
<path d="M112.754 348.107L125.145 346.454V346.931C125.145 346.931 115.99 348.541 115.99 348.735L115.877 419.702L112.019 419.74L112.754 348.107Z" fill="#38171A"/>
<path d="M115.99 348.735L125.145 346.931L124.335 419.697H115.877L115.99 348.735Z" fill="#FFCED3"/>
<path d="M86.1356 351.477L97.5289 349.953V350.393C97.5289 350.393 89.1087 351.879 89.1087 352.051L88.996 419.359L85.4434 419.391L86.1356 351.477Z" fill="#38171A"/>
<path d="M89.1142 352.051L97.5343 350.393L96.7884 419.359H89.0122L89.1142 352.051Z" fill="#FFCED3"/>
<path d="M49.8202 355.598L57.6768 354.525V354.826C57.6768 354.826 51.8702 355.851 51.8702 355.969L51.8004 418.859H49.3533L49.8202 355.598Z" fill="#38171A"/>
<path d="M51.8487 355.995L57.65 354.852L57.1401 418.902H51.7789L51.8487 355.995Z" fill="#FFCED3"/>
<path d="M66.7141 353.393L78.3703 352.03L78.4132 437.53L65.5442 437.122L66.7141 353.393Z" fill="#FFCED3" stroke="#CC7CFE" stroke-width="0.25" stroke-miterlimit="10"/>
<path d="M153.309 210.073L36.0709 286.82L17.6689 287.77L123.267 216.803L153.309 210.073Z" fill="#DB5461"/>
<path d="M123.047 213.052L123.267 216.803L17.6637 287.77L17.1163 286.15L123.047 213.052Z" fill="#F98E99"/>
<path d="M75.7905 276L70 280.32V295.175L75.9569 292.529L75.9354 290.452L73.4024 291.15L73.2897 280.889L75.9354 278.538L75.7905 276Z" fill="#38171A"/>
<path d="M75.9354 278.538L73.2897 280.889V291.15L75.9354 290.452V278.538Z" fill="#FFCED3"/>
<path d="M117.203 202.903L116.881 204.24C116.648 205.206 116.623 206.212 116.808 207.189C116.993 208.166 117.384 209.092 117.954 209.907C118.829 211.16 120.09 212.093 121.544 212.563L123.052 213.052L17.1162 286.15L16.5796 285.227C16.1996 284.555 15.9999 283.797 16 283.026C16.0001 282.209 16.2247 281.407 16.6494 280.708C17.3126 279.616 18.1734 278.657 19.1877 277.88L117.203 202.903Z" fill="#38171A"/>
<path d="M243.8 182.532L124.92 205.109L117.197 202.903L116.875 204.24C116.642 205.206 116.618 206.212 116.803 207.189C116.988 208.166 117.378 209.092 117.949 209.907C118.824 211.16 120.085 212.093 121.539 212.563L123.047 213.052L243.795 190.474L243.8 182.532Z" fill="#DB5461"/>
<path d="M123.047 213.052L123.267 216.803L243.8 193.195V190.474L123.047 213.052Z" fill="#F98E99"/>
<path d="M243.8 193.195L218.572 206.215L157.355 219.229L157.345 210.073L243.8 193.195Z" fill="#38171A"/>
<path d="M119.296 211.839L17.1163 285.049V285.785L123.047 213.052L119.296 211.839Z" fill="#38171A"/>
<path d="M19.4292 282.731L19.7619 293.69L38.8079 301.004V298.723L21.1197 292.863L20.6206 283.268L19.4292 282.731Z" fill="#F98E99"/>
<path d="M38.8079 301.004H36.3822L19.2468 294.538L18.9141 283.509L19.4293 282.758L19.762 293.69L38.8079 301.004Z" fill="#38171A"/>
<path d="M109.003 219.229L108.707 231.293L141.138 245.702V242.246L111.133 230.042V220.039L109.003 219.229Z" fill="#F98E99"/>
<path d="M141.138 245.702H136.796L107.79 232.575L108.08 220.409L109.003 219.266L108.707 231.293L141.138 245.702Z" fill="#38171A"/>
<path d="M54.8379 257.728L55.3531 267.104L74.0502 272.395V270.109L56.7108 266.277L56.0293 258.265L54.8379 257.728Z" fill="#F98E99"/>
<path d="M74.0501 272.395H71.6244L54.8378 267.952L54.3226 258.506L54.8378 257.755L55.353 267.104L74.0501 272.395Z" fill="#38171A"/>
<path d="M263.619 253.832L263.801 304.498L223.649 303.58V252.431L225.028 251.787L225.173 300.913L262.24 302.276L262.696 253.612L263.619 253.832Z" fill="#1D50E8"/>
<path d="M262.808 253.644L234.935 247.027L225.044 251.771L225.033 253.87L235.23 249.013L262.669 254.696L262.808 253.644Z" fill="#1D50E8"/>
<path d="M239.534 144V152.05L171.765 196.211L157.355 198.97L239.534 144Z" fill="#DB5461"/>
<path d="M239.534 152.05V154.808L177.684 195.111L170.557 196.442L239.534 152.05Z" fill="#F98E99"/>
<path d="M239.534 144L348.738 249.528V251.809L239.534 152.05V144Z" fill="#DB5461"/>
<path d="M239.534 152.05L348.738 251.809V253.354L239.534 154.808V152.05Z" fill="#F98E99"/>
<path d="M239.534 154.808L177.684 195.111L243.8 182.532V193.195L241.369 194.446L298.255 242.836L315.132 237.249L319.029 240.41V261.662L348.738 253.354L239.534 154.808Z" fill="#38171A"/>
<path d="M315.132 237.25L298.255 242.836V246.405L302.408 247.467V250.891L281.892 258.131L263.624 253.816L263.801 257.433L284.173 261.662L285.697 327.649L317.741 331.084L315.132 237.25Z" fill="#38171A"/>
<path d="M284.463 261.737L263.619 257.396L263.801 325.46L286.003 327.923L284.463 261.737Z" fill="#FFCED3"/>
<path d="M235.487 301.959L263.801 304.498L263.807 325.293L251.485 323.952L235.927 326.377L235.487 301.959Z" fill="#38171A"/>
<path d="M298.255 252.432L301.738 329.324L286.008 327.698L284.173 261.662L266.077 257.814V254.245L281.87 258.115L298.255 252.432Z" fill="#38171A"/>
<path d="M221.443 251.739L235.976 245.509L266.699 251.739L265.867 309.446L235.595 307.874L221.443 309.446V251.739Z" fill="#F98E99"/>
<path d="M226.294 256.44L234.934 253.795L235.927 301.299L226.294 302.292V256.44Z" fill="#FFCED3"/>
<path d="M259.095 257.508V301.004L235.412 300.124L234.934 253.795L259.095 257.508Z" fill="#FFCED3"/>
<path d="M235.874 249.872L261.977 255.345L261.456 301.047H259.02L259.073 257.412L236.12 253.612L226.224 256.934L226.219 254.444L235.874 249.872Z" fill="#38171A"/>
<path d="M315.717 305.195L263.909 297.097C260.518 296.567 257.069 296.516 253.664 296.947L223.649 300.747V303.8L252.939 299.255C256.854 298.648 260.841 298.68 264.746 299.351C279.268 301.847 315.61 308.072 315.701 307.9C315.761 307 315.767 306.097 315.717 305.195Z" fill="#232323" fill-opacity="0.92"/>
<path d="M315.231 307.349C314.967 307.313 314.606 307.26 314.157 307.19C313.129 307.032 311.647 306.794 309.824 306.494C306.179 305.896 301.174 305.056 295.718 304.133C284.807 302.286 272.091 300.106 264.83 298.859C260.873 298.178 256.831 298.145 252.863 298.761L252.863 298.761L224.149 303.217V301.187L253.727 297.443C253.727 297.443 253.727 297.443 253.727 297.443C257.085 297.018 260.487 297.068 263.831 297.591L263.831 297.591L315.236 305.626C315.257 306.201 315.255 306.775 315.231 307.349Z" stroke="#232323" stroke-opacity="0.92"/>
<path d="M240.194 300.124L240.854 325.68" stroke="#232323" stroke-opacity="0.92" stroke-miterlimit="10"/>
<path d="M247.621 298.724L247.879 324.499" stroke="#232323" stroke-opacity="0.92" stroke-miterlimit="10"/>
<path d="M304.249 304.391L304.394 329.651" stroke="#232323" stroke-opacity="0.92" stroke-miterlimit="10"/>
<path d="M295.791 302.845L296.011 328.765" stroke="#232323" stroke-opacity="0.92" stroke-miterlimit="10"/>
<path d="M276.01 300.124V326.597" stroke="#232323" stroke-opacity="0.92" stroke-miterlimit="10"/>
<path d="M285.713 301.224L286.008 327.703" stroke="#232323" stroke-opacity="0.92" stroke-miterlimit="10"/>
<path d="M256.594 297.988L256.519 324.499" stroke="#232323" stroke-opacity="0.92" stroke-miterlimit="10"/>
<path d="M235.927 305.861L248.888 303.988C252.435 303.476 256.038 303.465 259.588 303.956L314.928 311.598" stroke="#232323" stroke-opacity="0.92" stroke-linecap="square" stroke-linejoin="bevel"/>
<path d="M235.927 310.637L247.734 308.464C251.549 307.762 255.454 307.687 259.293 308.244L314.902 316.294" stroke="#232323" stroke-opacity="0.92" stroke-linecap="square" stroke-linejoin="bevel"/>
<path d="M314.928 320.785L260.506 312.365C255.647 311.612 250.684 311.874 245.931 313.133L235.927 315.784" stroke="#232323" stroke-opacity="0.92" stroke-linecap="square" stroke-linejoin="bevel"/>
<path d="M235.927 320.785C235.927 320.785 241.873 319.175 246.816 317.963C251.261 316.862 255.876 316.629 260.41 317.276L314.928 325.052" stroke="#232323" stroke-opacity="0.92" stroke-linecap="square" stroke-linejoin="bevel"/>
<path d="M235.503 301.965L235.943 326.377L229.176 327.628C229.176 327.628 223.847 327.483 223.847 327.091C223.847 326.699 223.665 303.596 223.665 303.596L235.503 301.965Z" fill="#38171A"/>
<path d="M315.132 237.25L319.029 240.41L321.309 340.862L252.107 334.465L223.686 339.134L223.665 333.714L228.849 332.608L229.122 327.51L251.501 323.748L317.757 331.1L315.132 237.25Z" fill="#F98E99"/>
<path d="M321.309 340.862L223.686 349.947V339.134L252.22 334.1L321.309 340.862Z" fill="#38171A"/>
<path d="M285.917 344.157L285.901 428.154H282.665L281.522 344.173L285.917 344.157Z" fill="#F98E99"/>
<path d="M223.729 349.947L281.532 344.173L282.665 428.154L223.729 429.147V349.947Z" fill="#8E3B44"/>
<line x1="168.75" y1="386.75" x2="168.75" y2="390.25" stroke="#38171A" stroke-width="1.5" stroke-linecap="round" stroke-linejoin="bevel"/>
<line x1="75.75" y1="387.75" x2="75.75" y2="391.25" stroke="#38171A" stroke-width="1.5" stroke-linecap="round" stroke-linejoin="bevel"/>
<line x1="281.657" y1="283.713" x2="281.841" y2="287.208" stroke="#38171A" stroke-width="1.5" stroke-linecap="round" stroke-linejoin="bevel"/>
<circle cx="162.767" cy="503.767" r="2.76744" fill="#DB5461"/>
<circle cx="172.256" cy="503.767" r="2.26744" stroke="#DB5461"/>
<circle cx="181.744" cy="503.767" r="2.26744" stroke="#DB5461"/>
<circle cx="191.233" cy="503.767" r="2.26744" stroke="#DB5461"/>
<path d="M254.529 390.302L251.088 396.84C251.088 396.84 253.325 399.249 255.045 399.249C256.766 399.249 257.282 396.496 257.282 396.496V393.399" fill="url(#paint0_linear)"/>
<path d="M264.509 385.484C264.509 385.484 264.164 391.506 263.132 393.055C262.1 394.603 260.379 395.808 259.519 396.152C258.659 396.496 257.454 396.668 256.25 395.636C255.045 394.603 254.529 393.227 254.185 390.646C253.841 388.065 254.701 383.936 255.734 383.076C256.766 382.215 258.142 382.215 259.347 382.559C260.551 382.904 261.412 384.108 262.272 384.624C263.132 385.14 264.509 385.484 264.509 385.484Z" fill="#FFEBDA"/>
<path d="M254.271 390.56C254.271 390.56 253.927 391.248 253.411 390.216C252.895 389.184 252.809 386.173 252.895 385.226C252.981 384.28 252.723 382.99 253.583 381.785C254.013 381.183 255.82 380.581 255.82 380.581C255.82 380.581 256.68 378 259.949 378C262.618 378 263.39 380.925 264.509 381.355C265.244 381.626 265.962 381.942 266.659 382.301C267.795 382.869 267.95 383.936 267.003 384.71C266.057 385.484 264.509 385.484 264.509 385.484C264.509 385.484 262.788 385.14 261.756 384.452C260.035 382.215 258.406 382.372 258.406 382.372C258.406 382.372 256.159 381.871 254.999 384.28C253.839 386.689 254.271 390.56 254.271 390.56Z" fill="#1F2632"/>
<path d="M257.146 397.023L260.168 399.387C260.717 399.816 261.105 400.419 261.269 401.097C261.654 402.702 262.301 406.026 262.358 410.517C262.444 416.969 262.702 429.959 262.702 429.959C262.702 429.959 260.035 431.766 255.131 431.852C250.228 431.938 245.668 430.132 245.668 430.132L244.808 411.033L238.098 419.292L235.001 417.571C235.001 417.571 244.378 401.14 246.012 399.677C247.647 398.559 251.088 396.839 251.088 396.839C251.088 396.839 253.583 399.356 255.131 399.163C256.508 398.991 257.146 397.023 257.146 397.023Z" fill="#DB5461"/>
<path d="M235.001 417.573L230.376 424.884C229.948 425.56 229.386 426.141 228.724 426.591C228.306 426.855 227.928 427.179 227.602 427.552C227.086 428.241 226.914 429.789 226.914 429.789C226.914 429.789 227.086 430.822 227.43 431.166C227.774 431.51 230.011 431.682 230.183 431.338C230.355 430.994 230.011 429.789 230.355 429.445C230.699 429.101 231.732 429.617 231.904 429.273C232.076 428.929 231.732 427.38 232.076 426.52C232.42 425.66 238.098 419.294 238.098 419.294L235.001 417.573Z" fill="url(#paint1_linear)"/>
<path d="M262.358 410.147L263.45 416.381C263.464 416.454 263.495 416.523 263.541 416.581C263.587 416.639 263.647 416.684 263.715 416.714C263.783 416.743 263.858 416.755 263.931 416.749C264.005 416.742 264.077 416.717 264.139 416.677L266.143 415.336V419.638L262.561 422.563L262.358 410.147Z" fill="#DB5461"/>
<path d="M278.812 407.561L275.617 406.933C275.57 406.924 275.522 406.93 275.479 406.949C275.436 406.968 275.4 407 275.376 407.04L271.522 413.39C271.502 413.424 271.492 413.462 271.491 413.501C271.491 413.54 271.5 413.578 271.518 413.613C271.536 413.647 271.563 413.676 271.595 413.697C271.628 413.719 271.665 413.732 271.704 413.735L274.746 413.92C274.786 413.923 274.825 413.915 274.861 413.897C274.896 413.88 274.927 413.853 274.949 413.821L278.961 407.916C278.982 407.884 278.995 407.847 278.999 407.809C279.003 407.771 278.997 407.733 278.982 407.698C278.967 407.663 278.944 407.632 278.914 407.608C278.884 407.584 278.849 407.568 278.812 407.561Z" fill="#1F2632"/>
<path d="M266.143 415.336L270.116 412.358C270.217 412.282 270.335 412.231 270.46 412.212C270.46 412.212 271.133 412.239 271.477 412.067C271.821 411.895 273.197 410.691 273.197 410.691L271.649 413.327C271.632 413.356 271.623 413.39 271.623 413.424C271.623 413.459 271.633 413.492 271.65 413.522C271.668 413.551 271.693 413.575 271.723 413.592C271.753 413.608 271.787 413.617 271.821 413.616H274.62C274.66 413.616 274.7 413.608 274.737 413.593C274.774 413.577 274.807 413.555 274.835 413.526L275.221 413.141C275.324 413.038 275.393 412.816 275.262 412.755C274.906 412.583 274.23 412.186 274.23 412.067C274.23 411.949 275.063 412.2 275.434 412.239C275.481 412.239 275.496 412.164 275.458 412.138C275.075 411.873 274.092 411.346 274.23 411.207C274.367 411.068 275.143 411.36 275.606 411.551C275.654 411.572 275.82 411.24 275.778 411.207C275.778 411.207 274.23 410.347 274.402 410.175C274.533 410.044 275.753 410.581 276.332 410.765C276.355 410.771 276.379 410.771 276.402 410.764C276.424 410.757 276.444 410.743 276.459 410.725C276.474 410.706 276.483 410.684 276.485 410.661C276.487 410.637 276.483 410.614 276.472 410.593C276.472 410.593 274.923 409.665 275.267 409.493C275.611 409.321 277.033 410.288 277.033 410.288C277.143 410.36 277.224 410.469 277.259 410.596C277.294 410.723 277.281 410.859 277.222 410.976L275.864 413.862C275.82 413.951 275.751 414.026 275.666 414.079C275.581 414.131 275.483 414.158 275.383 414.158L272.337 414.304L266.143 419.638V415.336Z" fill="url(#paint2_linear)"/>
<path d="M262.702 429.732L245.668 430.133L246.656 446.439C246.687 446.925 246.744 447.408 246.828 447.888L247.64 452.673C247.816 453.703 247.813 454.755 247.631 455.784L247.205 458.203C246.813 460.423 246.632 462.674 246.663 464.928L246.788 473.927L248.337 474.443L250.057 474.271L252.466 454.485L254.531 439.86C254.531 439.86 256.682 445.796 257.456 447.086C257.994 447.983 259.349 450.309 260.433 451.329C260.67 451.551 260.837 451.838 260.912 452.154C260.987 452.47 260.968 452.801 260.856 453.106C260.107 455.14 259.029 459.128 258.832 461.021C258.574 463.516 257.628 474.097 257.628 474.097L259.261 474.524L260.379 474.438L265.679 452.587C265.815 452.024 265.842 451.44 265.759 450.866L262.702 429.732Z" fill="#1F2632"/>
<path d="M256.852 474.481V476.525C256.852 476.941 256.852 477.279 257.26 477.279H266.178C266.331 477.278 266.482 477.248 266.624 477.189C266.765 477.13 266.894 477.043 267.002 476.935C267.056 476.88 267.096 476.813 267.117 476.74C267.139 476.666 267.141 476.588 267.123 476.513C267.106 476.438 267.07 476.369 267.019 476.312C266.967 476.255 266.902 476.213 266.83 476.188L260.854 474.245C260.723 474.203 260.583 474.196 260.448 474.225C260.01 474.351 259.551 474.394 259.097 474.35C258.61 474.307 258.137 474.164 257.707 473.93C257.593 473.867 257.464 473.834 257.334 473.834H257.506C257.42 473.833 257.335 473.849 257.256 473.881C257.177 473.913 257.104 473.96 257.043 474.021C256.983 474.081 256.934 474.152 256.901 474.232C256.869 474.311 256.852 474.395 256.852 474.481Z" fill="#38171A"/>
<path d="M246.357 474.481V476.525C246.357 476.941 246.357 477.279 246.764 477.279H255.682C255.835 477.278 255.987 477.248 256.128 477.189C256.27 477.13 256.398 477.043 256.506 476.935C256.561 476.88 256.6 476.813 256.622 476.74C256.643 476.666 256.645 476.588 256.628 476.513C256.611 476.438 256.575 476.369 256.523 476.312C256.472 476.255 256.407 476.213 256.334 476.188L250.359 474.245C250.227 474.203 250.087 474.196 249.953 474.225C249.514 474.351 249.056 474.394 248.602 474.35C248.115 474.307 247.641 474.164 247.212 473.93C247.097 473.867 246.969 473.834 246.838 473.834H247.01C246.925 473.833 246.84 473.849 246.76 473.881C246.681 473.913 246.609 473.96 246.548 474.021C246.487 474.081 246.439 474.152 246.406 474.232C246.373 474.311 246.356 474.395 246.357 474.481Z" fill="#38171A"/>
<path d="M231.701 429.359L226.296 428.229C226.077 428.182 225.85 428.207 225.646 428.3C225.443 428.393 225.274 428.549 225.166 428.745C225.089 428.887 225.046 429.044 225.04 429.206C225.034 429.367 225.066 429.528 225.132 429.675C225.199 429.822 225.299 429.951 225.424 430.053C225.549 430.155 225.697 430.227 225.854 430.262L231.222 431.482C231.462 431.537 231.714 431.505 231.933 431.392C232.151 431.28 232.323 431.093 232.418 430.866L232.454 430.777C232.512 430.635 232.538 430.482 232.531 430.329C232.523 430.176 232.482 430.027 232.41 429.891C232.338 429.756 232.237 429.638 232.115 429.546C231.992 429.454 231.851 429.39 231.701 429.359Z" fill="#1F2632"/>
<path d="M231.215 430.822L222.441 447.511" stroke="#1F2632" stroke-miterlimit="10"/>
<path d="M226.398 429.617L218.999 444.93" stroke="#1F2632" stroke-miterlimit="10"/>
<path d="M210.225 473.492C208.799 473.492 207.644 472.336 207.644 470.911C207.644 469.485 208.799 468.33 210.225 468.33C211.65 468.33 212.805 469.485 212.805 470.911C212.805 472.336 211.65 473.492 210.225 473.492Z" fill="#8E3B44"/>
<path d="M210.224 472.631C209.274 472.631 208.504 471.861 208.504 470.911C208.504 469.961 209.274 469.19 210.224 469.19C211.175 469.19 211.945 469.961 211.945 470.911C211.945 471.861 211.175 472.631 210.224 472.631Z" fill="#FFCED3"/>
<path d="M216.935 472.459C219.171 471.599 220.892 469.362 220.892 469.362C220.892 469.362 224.505 463.512 225.538 461.104C226.57 458.695 227.086 454.049 226.742 451.813C226.453 449.934 224.101 447.812 223.354 447.181C223.214 447.062 223.062 446.959 222.9 446.873L220.548 445.618L218.655 444.758L214.87 462.136L210.224 468.674" fill="#8E3B44"/>
<path d="M219.516 445.274C219.516 445.274 224.849 448.543 225.366 451.124C225.751 453.048 225.71 454.909 225.193 457.834C224.677 460.759 221.58 467.126 220.72 468.502C219.86 469.878 218.483 471.599 217.279 472.287C216.074 472.975 215.042 472.631 210.741 472.115C206.439 471.599 203.774 468.197 203.774 468.197" fill="#DB5461"/>
<path d="M218.655 444.758C218.955 444.853 219.236 445.002 219.481 445.199C220.474 445.959 221.446 447.525 221.58 449.404C221.752 451.812 220.823 457.533 220.204 458.867C217.967 463.684 214.87 469.19 212.461 470.051C210.052 470.911 207.644 470.223 205.751 469.706C202.138 468.846 202.998 462.824 203.342 461.448C203.858 459.383 206.439 453.361 206.439 453.361C206.439 453.361 209.02 447.511 212.461 445.79C215.902 444.07 217.451 444.414 218.655 444.758Z" fill="#FFCED3"/>
<path d="M217.623 475.556C216.198 475.556 215.042 474.401 215.042 472.976C215.042 471.55 216.198 470.395 217.623 470.395C219.048 470.395 220.204 471.55 220.204 472.976C220.204 474.401 219.048 475.556 217.623 475.556Z" fill="#8E3B44"/>
<path d="M217.623 474.696C216.673 474.696 215.902 473.926 215.902 472.976C215.902 472.025 216.673 471.255 217.623 471.255C218.573 471.255 219.344 472.025 219.344 472.976C219.344 473.926 218.573 474.696 217.623 474.696Z" fill="#FFCED3"/>
<path d="M54.8311 57.0039C52.7835 57.7786 50.4593 58.166 47.8584 58.166C39.3363 58.166 35.0752 54.0433 35.0752 45.7979C35.0752 37.9951 39.3363 34.0938 47.8584 34.0938C50.4593 34.0938 52.7835 34.4811 54.8311 35.2559V39.2402C52.7835 38.3548 50.57 37.9121 48.1904 37.9121C42.4906 37.9121 39.6406 40.5407 39.6406 45.7979C39.6406 51.4977 42.4906 54.3477 48.1904 54.3477C50.57 54.3477 52.7835 53.9049 54.8311 53.0195V57.0039ZM58.9814 58V34.2598H63.3809V44.0547H75.085V34.2598H79.4844V58H75.085V47.873H63.3809V58H58.9814ZM88.2168 46.0635C88.2168 51.5863 90.6683 54.3477 95.5713 54.3477C100.353 54.3477 102.743 51.5863 102.743 46.0635C102.743 40.6292 100.353 37.9121 95.5713 37.9121C90.6683 37.9121 88.2168 40.6292 88.2168 46.0635ZM83.6514 46.1631C83.6514 38.1169 87.6247 34.0938 95.5713 34.0938C103.396 34.0938 107.309 38.1169 107.309 46.1631C107.309 54.165 103.396 58.166 95.5713 58.166C87.9788 58.166 84.0055 54.165 83.6514 46.1631ZM115.211 46.0635C115.211 51.5863 117.662 54.3477 122.565 54.3477C127.347 54.3477 129.737 51.5863 129.737 46.0635C129.737 40.6292 127.347 37.9121 122.565 37.9121C117.662 37.9121 115.211 40.6292 115.211 46.0635ZM110.646 46.1631C110.646 38.1169 114.619 34.0938 122.565 34.0938C130.39 34.0938 134.303 38.1169 134.303 46.1631C134.303 54.165 130.39 58.166 122.565 58.166C114.973 58.166 111 54.165 110.646 46.1631ZM138.055 57.0039V53.0195C140.434 53.9049 143.124 54.3477 146.123 54.3477C149.764 54.3477 151.585 53.1302 151.585 50.6953C151.585 48.9245 150.467 48.0391 148.231 48.0391H144.513C139.654 48.0391 137.225 45.8255 137.225 41.3984C137.225 36.5286 140.683 34.0938 147.601 34.0938C150.257 34.0938 152.775 34.4811 155.154 35.2559V39.2402C152.775 38.3548 150.257 37.9121 147.601 37.9121C143.616 37.9121 141.624 39.0742 141.624 41.3984C141.624 43.1693 142.587 44.0547 144.513 44.0547H148.231C153.4 44.0547 155.984 46.2682 155.984 50.6953C155.984 55.6758 152.697 58.166 146.123 58.166C143.124 58.166 140.434 57.7786 138.055 57.0039ZM175.973 34.2598V38.0449H164.086V44.0215H175.408V47.9561H164.036V54.1816H176.205V58H159.72V34.2598H175.973ZM190.184 58H185.668L195.745 34.2598H200.477L210.77 58H206.038L203.332 51.5254H195.446L196.957 47.707H201.738L198.003 38.792L190.184 58ZM221.146 58V34.2598H225.545V44.0547H237.249V34.2598H241.648V58H237.249V47.873H225.545V58H221.146ZM250.381 46.0635C250.381 51.5863 252.832 54.3477 257.735 54.3477C262.517 54.3477 264.907 51.5863 264.907 46.0635C264.907 40.6292 262.517 37.9121 257.735 37.9121C252.832 37.9121 250.381 40.6292 250.381 46.0635ZM245.815 46.1631C245.815 38.1169 249.789 34.0938 257.735 34.0938C265.56 34.0938 269.473 38.1169 269.473 46.1631C269.473 54.165 265.56 58.166 257.735 58.166C250.143 58.166 246.17 54.165 245.815 46.1631ZM273.64 58V34.2598H278.205L286.257 52.2725L294.143 34.2598H298.542V58H294.475V41.4648L288.033 58H284.281L277.707 41.4648V58H273.64ZM319.775 34.2598V38.0449H307.889V44.0215H319.211V47.9561H307.839V54.1816H320.008V58H303.522V34.2598H319.775Z" fill="#DB5461"/>
<path d="M61.3555 72.2422V74H52.5664V79.625H60.9453V81.3828H52.5664V87.2422H61.5312V89H50.3984V72.2422H61.3555ZM63.9922 85.2852C63.9922 82.7617 65.6562 81.5 68.9844 81.5C70.0547 81.5 71.125 81.5781 72.1953 81.7344V80.5742C72.1953 79.1602 71.0898 78.4531 68.8789 78.4531C67.6133 78.4531 66.3164 78.6484 64.9883 79.0391V77.2812C66.3164 76.8906 67.6133 76.6953 68.8789 76.6953C72.5352 76.6953 74.3633 77.9688 74.3633 80.5156V89H73.1445L72.3945 87.7812C71.168 88.5938 69.832 89 68.3867 89C65.457 89 63.9922 87.7617 63.9922 85.2852ZM68.9844 83.2578C67.1016 83.2578 66.1602 83.9219 66.1602 85.25C66.1602 86.5781 66.9023 87.2422 68.3867 87.2422C69.8867 87.2422 71.1562 86.8438 72.1953 86.0469V83.4922C71.125 83.3359 70.0547 83.2578 68.9844 83.2578ZM77.7734 88.4141V86.5391C79.2188 87.0078 80.6797 87.2422 82.1562 87.2422C84.1172 87.2422 85.0977 86.6562 85.0977 85.4844C85.0977 84.3906 84.4141 83.8438 83.0469 83.8438H81.2891C78.6328 83.8438 77.3047 82.6328 77.3047 80.2109C77.3047 77.8672 79.0117 76.6953 82.4258 76.6953C83.8945 76.6953 85.3516 76.8906 86.7969 77.2812V79.1562C85.3516 78.6875 83.8945 78.4531 82.4258 78.4531C80.3789 78.4531 79.3555 79.0391 79.3555 80.2109C79.3555 81.3047 80 81.8516 81.2891 81.8516H83.0469C85.8594 81.8516 87.2656 83.0625 87.2656 85.4844C87.2656 87.8281 85.5625 89 82.1562 89C80.6797 89 79.2188 88.8047 77.7734 88.4141ZM88.7305 76.6953H91.0859L94.5664 86.3047L98.1641 76.6953H100.461L95.3516 89.3633C94.4453 91.5977 93.0859 92.9922 91.2734 93.5469L90.4414 92.0117C91.8164 91.4102 92.8164 90.4297 93.4414 89.0703L88.7305 76.6953ZM108.359 89V76.0977C108.359 73.1211 110.047 71.6328 113.422 71.6328C114.352 71.6328 115.227 71.7891 116.047 72.1016V73.8594C115.273 73.5469 114.395 73.3906 113.41 73.3906C111.488 73.3906 110.527 74.2617 110.527 76.0039V76.6953H114.336V78.4531H110.527V89H108.359ZM116.117 85.2852C116.117 82.7617 117.781 81.5 121.109 81.5C122.18 81.5 123.25 81.5781 124.32 81.7344V80.5742C124.32 79.1602 123.215 78.4531 121.004 78.4531C119.738 78.4531 118.441 78.6484 117.113 79.0391V77.2812C118.441 76.8906 119.738 76.6953 121.004 76.6953C124.66 76.6953 126.488 77.9688 126.488 80.5156V89H125.27L124.52 87.7812C123.293 88.5938 121.957 89 120.512 89C117.582 89 116.117 87.7617 116.117 85.2852ZM121.109 83.2578C119.227 83.2578 118.285 83.9219 118.285 85.25C118.285 86.5781 119.027 87.2422 120.512 87.2422C122.012 87.2422 123.281 86.8438 124.32 86.0469V83.4922C123.25 83.3359 122.18 83.2578 121.109 83.2578ZM129.898 88.4141V86.5391C131.344 87.0078 132.805 87.2422 134.281 87.2422C136.242 87.2422 137.223 86.6562 137.223 85.4844C137.223 84.3906 136.539 83.8438 135.172 83.8438H133.414C130.758 83.8438 129.43 82.6328 129.43 80.2109C129.43 77.8672 131.137 76.6953 134.551 76.6953C136.02 76.6953 137.477 76.8906 138.922 77.2812V79.1562C137.477 78.6875 136.02 78.4531 134.551 78.4531C132.504 78.4531 131.48 79.0391 131.48 80.2109C131.48 81.3047 132.125 81.8516 133.414 81.8516H135.172C137.984 81.8516 139.391 83.0625 139.391 85.4844C139.391 87.8281 137.688 89 134.281 89C132.805 89 131.344 88.8047 129.898 88.4141ZM142.32 74.7031H143.68L144.148 76.6953H147.477V78.4531H144.488V85.5195C144.488 86.668 144.984 87.2422 145.977 87.2422H147.477V89H145.414C143.352 89 142.32 87.8945 142.32 85.6836V74.7031ZM156.102 89V76.6953H157.566L157.953 78.2656C159.211 77.2188 160.594 76.6953 162.102 76.6953C165.172 76.6953 166.707 78.2227 166.707 81.2773V89H164.539V81.2422C164.539 79.4141 163.629 78.5 161.809 78.5C160.566 78.5 159.387 79.0195 158.27 80.0586V89H156.102ZM171.816 82.8008C171.816 85.7617 173.047 87.2422 175.508 87.2422C177.969 87.2422 179.199 85.7617 179.199 82.8008C179.199 79.9023 177.969 78.4531 175.508 78.4531C173.047 78.4531 171.816 79.9023 171.816 82.8008ZM169.648 82.8477C169.648 78.7461 171.602 76.6953 175.508 76.6953C179.414 76.6953 181.367 78.7461 181.367 82.8477C181.367 86.9414 179.414 88.9883 175.508 88.9883C171.617 88.9883 169.664 86.9414 169.648 82.8477ZM184.297 74.7031H185.656L186.125 76.6953H189.453V78.4531H186.465V85.5195C186.465 86.668 186.961 87.2422 187.953 87.2422H189.453V89H187.391C185.328 89 184.297 87.8945 184.297 85.6836V74.7031ZM203.152 76.6953C206.652 76.6953 208.402 78.4258 208.402 81.8867C208.402 82.3789 208.367 82.9062 208.297 83.4688H199.66C199.66 85.9844 201.129 87.2422 204.066 87.2422C205.465 87.2422 206.707 87.0859 207.793 86.7734V88.5312C206.707 88.8438 205.387 89 203.832 89C199.605 89 197.492 86.9023 197.492 82.707C197.492 78.6992 199.379 76.6953 203.152 76.6953ZM199.66 81.6641H206.316C206.27 79.5078 205.215 78.4297 203.152 78.4297C200.965 78.4297 199.801 79.5078 199.66 81.6641ZM214.461 82.8477L209.855 76.6953H212.375L215.715 81.1602L219.055 76.6953H221.574L216.98 82.8477L221.574 89H219.055L215.715 84.5352L212.375 89H209.855L214.461 82.8477ZM225.793 86.4922C226.645 86.9141 227.594 87.125 228.641 87.125C231.195 87.125 232.473 85.5898 232.473 82.5195C232.473 79.8398 231.203 78.5 228.664 78.5C227.57 78.5 226.613 78.5938 225.793 78.7812V86.4922ZM223.625 77.1992C225.258 76.8633 226.945 76.6953 228.688 76.6953C232.633 76.6953 234.605 78.6445 234.605 82.543C234.605 86.8477 232.621 89 228.652 89C227.668 89 226.715 88.8047 225.793 88.4141V93.4531H223.625V77.1992ZM242.621 76.6953C246.121 76.6953 247.871 78.4258 247.871 81.8867C247.871 82.3789 247.836 82.9062 247.766 83.4688H239.129C239.129 85.9844 240.598 87.2422 243.535 87.2422C244.934 87.2422 246.176 87.0859 247.262 86.7734V88.5312C246.176 88.8438 244.855 89 243.301 89C239.074 89 236.961 86.9023 236.961 82.707C236.961 78.6992 238.848 76.6953 242.621 76.6953ZM239.129 81.6641H245.785C245.738 79.5078 244.684 78.4297 242.621 78.4297C240.434 78.4297 239.27 79.5078 239.129 81.6641ZM250.789 89V76.6953H252.254L252.641 78.2656C253.898 77.2188 255.281 76.6953 256.789 76.6953C259.859 76.6953 261.395 78.2227 261.395 81.2773V89H259.227V81.2422C259.227 79.4141 258.316 78.5 256.496 78.5C255.254 78.5 254.074 79.0195 252.957 80.0586V89H250.789ZM264.805 88.4141V86.5391C266.25 87.0078 267.711 87.2422 269.188 87.2422C271.148 87.2422 272.129 86.6562 272.129 85.4844C272.129 84.3906 271.445 83.8438 270.078 83.8438H268.32C265.664 83.8438 264.336 82.6328 264.336 80.2109C264.336 77.8672 266.043 76.6953 269.457 76.6953C270.926 76.6953 272.383 76.8906 273.828 77.2812V79.1562C272.383 78.6875 270.926 78.4531 269.457 78.4531C267.41 78.4531 266.387 79.0391 266.387 80.2109C266.387 81.3047 267.031 81.8516 268.32 81.8516H270.078C272.891 81.8516 274.297 83.0625 274.297 85.4844C274.297 87.8281 272.594 89 269.188 89C267.711 89 266.25 88.8047 264.805 88.4141ZM279.629 76.6953V89H277.461V76.6953H279.629ZM279.629 72.2422V74.293H277.461V72.2422H279.629ZM281.633 76.6953H283.977L287.504 86.3398L291.008 76.6953H293.352L288.348 89H286.332L281.633 76.6953ZM300.184 76.6953C303.684 76.6953 305.434 78.4258 305.434 81.8867C305.434 82.3789 305.398 82.9062 305.328 83.4688H296.691C296.691 85.9844 298.16 87.2422 301.098 87.2422C302.496 87.2422 303.738 87.0859 304.824 86.7734V88.5312C303.738 88.8438 302.418 89 300.863 89C296.637 89 294.523 86.9023 294.523 82.707C294.523 78.6992 296.41 76.6953 300.184 76.6953ZM296.691 81.6641H303.348C303.301 79.5078 302.246 78.4297 300.184 78.4297C297.996 78.4297 296.832 79.5078 296.691 81.6641Z" fill="#38171A"/>
<path d="M27.902 443.549L29.2101 452.316C29.2101 452.316 29.727 455 35.4898 455C41.2527 455 42.1384 452.177 42.1384 452.177L43.6471 443.191L35.5656 444.468L27.902 443.549Z" fill="#DB5461"/>
<path d="M43.8295 440.694V443.224C43.8293 443.425 43.774 443.623 43.6696 443.794C43.5652 443.966 43.4157 444.106 43.2373 444.199C42.1893 444.746 39.7337 445.743 35.7648 445.743C31.8932 445.743 29.4265 444.969 28.3159 444.518C28.1138 444.436 27.9406 444.295 27.8184 444.115C27.6963 443.934 27.6306 443.721 27.6299 443.503V440.697" fill="#DB5461"/>
<path d="M35.7301 442.938C40.2033 442.938 43.8295 441.95 43.8295 440.73C43.8295 439.51 40.2033 438.521 35.7301 438.521C31.2569 438.521 27.6307 439.51 27.6307 440.73C27.6307 441.95 31.2569 442.938 35.7301 442.938Z" fill="#FFCED3"/>
<path d="M35.7655 442.553C39.5805 442.553 42.6731 441.799 42.6731 440.869C42.6731 439.94 39.5805 439.186 35.7655 439.186C31.9506 439.186 28.858 439.94 28.858 440.869C28.858 441.799 31.9506 442.553 35.7655 442.553Z" fill="#38171A"/>
<path d="M6.5233 399.671C6.73392 398.058 2.38607 389.359 8.34618 388.101C12.6602 387.187 15.6902 392.742 17.0334 395.878C17.603 397.207 18.4981 398.371 19.6362 399.262C20.955 400.297 22.6552 401.768 23.5637 403.107C25.1768 405.492 25.8078 410.401 25.8078 410.61C25.8078 410.82 29.5915 413.135 30.8603 415.8C32.1291 418.464 29.808 423.514 30.3697 425.197C30.9314 426.88 33.7355 427.511 32.8228 430.103C31.91 432.695 29.5416 433.768 29.5416 433.768C29.5416 433.768 23.4233 433.543 20.9685 432.982C19.1837 432.574 17.7694 427.79 17.1307 425.21C16.8678 424.146 16.2333 423.211 15.3417 422.574C13.1136 420.983 10.1691 420.008 9.04742 417.904C7.92578 415.801 10.5201 412.785 10.1691 410.962C9.81802 409.139 5.40081 405.633 5.04976 403.88C4.69872 402.126 6.31267 401.286 6.5233 399.671Z" fill="#E0E7FF"/>
<path d="M34.4324 440.694C34.4324 440.694 24.6151 427.09 20.0574 419.304C15.4998 411.517 10.8009 398.55 10.8009 398.55" stroke="#38171A" stroke-miterlimit="10" stroke-linecap="round"/>
<path d="M14.3773 407.525L17.7431 402.687" stroke="#38171A" stroke-miterlimit="10" stroke-linecap="round"/>
<path d="M22.5815 423.444L23.4232 418.956" stroke="#38171A" stroke-miterlimit="10" stroke-linecap="round"/>
<path d="M26.9996 430.035L22.5815 428.563" stroke="#38171A" stroke-miterlimit="10" stroke-linecap="round"/>
<path d="M18.2337 416.01L11.2213 415.59" stroke="#38171A" stroke-miterlimit="10" stroke-linecap="round"/>
<path d="M36.5362 382C33.5908 382 32.8193 387.329 31.4169 391.817C30.8104 393.758 26.5107 391.466 24.5449 394.061C22.579 396.657 24.8959 399.814 24.9678 400.302C25.0397 400.791 27.8438 403.879 27.8438 407.596C27.8438 411.313 24.5449 418.677 24.5449 418.677C24.5449 418.677 23.2828 424.568 25.8771 426.25C28.4715 427.932 28.9629 426.25 31.6977 426.25C34.4324 426.25 39.0569 431.72 42.0759 431.72C45.0948 431.72 47.6858 429.897 48.1764 426.25C48.667 422.603 46.3544 414.047 44.7413 412.645C43.1282 411.242 42.2171 406.544 42.5673 402.827C42.9175 399.111 46.8475 396.306 46.4246 393.504C46.2165 392.118 44.9299 391.023 43.6814 390.27C42.1163 389.321 40.9035 387.888 40.2268 386.187C39.4426 384.226 38.1882 382 36.5362 382Z" fill="#747ABC"/>
<path d="M36.1158 394.062C36.1158 394.062 34.4325 405.352 34.4325 413.837C34.4325 422.322 36.5362 439.853 36.5362 439.853" stroke="#38171A" stroke-miterlimit="10" stroke-linecap="round"/>
<path d="M34.9941 403.318L39.9028 397.357" stroke="#38171A" stroke-miterlimit="10" stroke-linecap="round"/>
<path d="M30.3655 407.876L34.4325 412.995" stroke="#38171A" stroke-miterlimit="10" stroke-linecap="round"/>
<path d="M39.8326 417.904L35.0643 425.617" stroke="#38171A" stroke-miterlimit="10" stroke-linecap="round"/>
<path d="M59.5359 384.665C56.0288 384.71 58.4836 388.171 57.2917 390.064C56.0999 391.957 54.6974 389.222 52.6639 391.326C50.6304 393.43 50.2793 398.76 48.5266 400.653C46.774 402.546 44.5307 402.056 43.5486 405.842C42.5665 409.628 45.0915 410.681 43.5486 415.449C42.0057 420.217 38.4995 421.624 38.4995 424.846C38.4995 428.068 40.3224 431.788 42.2163 432.91C44.1103 434.033 45.5153 431.368 47.9684 430.526C50.4214 429.684 52.1758 430.526 54.4901 429.194C56.8045 427.861 55.7522 424.288 57.2951 422.111C58.838 419.935 64.0969 416.431 63.9573 414.257C63.8177 412.083 61.1524 413.486 60.8013 410.958C60.4503 408.431 70.128 405.206 70.128 400.159C70.128 395.111 65.9206 391.884 64.0977 390.902C62.2748 389.92 64.9368 384.594 59.5359 384.665Z" fill="#555DB1"/>
<path d="M56.1016 394.622C56.1016 394.622 50.4215 418.605 48.5986 422.812C46.7757 427.02 39.342 439.502 39.342 439.502" stroke="#38171A" stroke-miterlimit="10" stroke-linecap="round"/>
<path d="M49.5797 419.868L56.6623 414.538" stroke="#38171A" stroke-miterlimit="10" stroke-linecap="round"/>
<path d="M54.348 401.705L61.7817 396.095" stroke="#38171A" stroke-miterlimit="10" stroke-linecap="round"/>
<path d="M52.806 408.086L49.0189 403.668" stroke="#38171A" stroke-miterlimit="10" stroke-linecap="round"/>
<path d="M111.902 467.549L113.21 476.316C113.21 476.316 113.727 479 119.49 479C125.253 479 126.138 476.177 126.138 476.177L127.647 467.191L119.566 468.468L111.902 467.549Z" fill="#DB5461"/>
<path d="M127.829 464.694V467.224C127.829 467.425 127.774 467.623 127.67 467.794C127.565 467.966 127.416 468.106 127.237 468.199C126.189 468.746 123.734 469.743 119.765 469.743C115.893 469.743 113.427 468.969 112.316 468.518C112.114 468.436 111.941 468.295 111.818 468.115C111.696 467.934 111.631 467.721 111.63 467.503V464.697" fill="#DB5461"/>
<path d="M119.73 466.938C124.203 466.938 127.829 465.95 127.829 464.73C127.829 463.51 124.203 462.521 119.73 462.521C115.257 462.521 111.631 463.51 111.631 464.73C111.631 465.95 115.257 466.938 119.73 466.938Z" fill="#FFCED3"/>
<path d="M119.766 466.553C123.58 466.553 126.673 465.799 126.673 464.869C126.673 463.94 123.58 463.186 119.766 463.186C115.951 463.186 112.858 463.94 112.858 464.869C112.858 465.799 115.951 466.553 119.766 466.553Z" fill="#38171A"/>
<path d="M90.5233 423.671C90.7339 422.058 86.3861 413.359 92.3462 412.101C96.6602 411.187 99.6902 416.742 101.033 419.878C101.603 421.207 102.498 422.371 103.636 423.262C104.955 424.297 106.655 425.768 107.564 427.107C109.177 429.492 109.808 434.401 109.808 434.61C109.808 434.82 113.591 437.135 114.86 439.8C116.129 442.464 113.808 447.514 114.37 449.197C114.931 450.88 117.735 451.511 116.823 454.103C115.91 456.695 113.542 457.768 113.542 457.768C113.542 457.768 107.423 457.543 104.969 456.982C103.184 456.574 101.769 451.79 101.131 449.21C100.868 448.146 100.233 447.211 99.3417 446.574C97.1136 444.983 94.1691 444.008 93.0474 441.904C91.9258 439.801 94.5201 436.785 94.1691 434.962C93.818 433.139 89.4008 429.633 89.0498 427.88C88.6987 426.126 90.3127 425.286 90.5233 423.671Z" fill="#E0E7FF"/>
<path d="M118.432 464.694C118.432 464.694 108.615 451.09 104.057 443.304C99.4998 435.517 94.8009 422.55 94.8009 422.55" stroke="#38171A" stroke-miterlimit="10" stroke-linecap="round"/>
<path d="M98.3773 431.525L101.743 426.687" stroke="#38171A" stroke-miterlimit="10" stroke-linecap="round"/>
<path d="M106.582 447.444L107.423 442.956" stroke="#38171A" stroke-miterlimit="10" stroke-linecap="round"/>
<path d="M111 454.035L106.582 452.563" stroke="#38171A" stroke-miterlimit="10" stroke-linecap="round"/>
<path d="M102.234 440.01L95.2213 439.59" stroke="#38171A" stroke-miterlimit="10" stroke-linecap="round"/>
<path d="M120.536 406C117.591 406 116.819 411.329 115.417 415.817C114.81 417.758 110.511 415.466 108.545 418.061C106.579 420.657 108.896 423.814 108.968 424.302C109.04 424.791 111.844 427.879 111.844 431.596C111.844 435.313 108.545 442.677 108.545 442.677C108.545 442.677 107.283 448.568 109.877 450.25C112.471 451.932 112.963 450.25 115.698 450.25C118.432 450.25 123.057 455.72 126.076 455.72C129.095 455.72 131.686 453.897 132.176 450.25C132.667 446.603 130.354 438.047 128.741 436.645C127.128 435.242 126.217 430.544 126.567 426.827C126.918 423.111 130.848 420.306 130.425 417.504C130.216 416.118 128.93 415.023 127.681 414.27C126.116 413.321 124.903 411.888 124.227 410.187C123.443 408.226 122.188 406 120.536 406Z" fill="#747ABC"/>
<path d="M120.116 418.062C120.116 418.062 118.432 429.352 118.432 437.837C118.432 446.322 120.536 463.853 120.536 463.853" stroke="#38171A" stroke-miterlimit="10" stroke-linecap="round"/>
<path d="M118.994 427.318L123.903 421.357" stroke="#38171A" stroke-miterlimit="10" stroke-linecap="round"/>
<path d="M114.365 431.876L118.433 436.995" stroke="#38171A" stroke-miterlimit="10" stroke-linecap="round"/>
<path d="M123.833 441.904L119.064 449.617" stroke="#38171A" stroke-miterlimit="10" stroke-linecap="round"/>
<path d="M143.536 408.665C140.029 408.71 142.484 412.171 141.292 414.064C140.1 415.957 138.697 413.222 136.664 415.326C134.63 417.43 134.279 422.76 132.527 424.653C130.774 426.546 128.531 426.056 127.549 429.842C126.567 433.628 129.092 434.681 127.549 439.449C126.006 444.217 122.5 445.624 122.5 448.846C122.5 452.068 124.322 455.788 126.216 456.91C128.11 458.033 129.515 455.368 131.968 454.526C134.421 453.684 136.176 454.526 138.49 453.194C140.804 451.861 139.752 448.288 141.295 446.111C142.838 443.935 148.097 440.431 147.957 438.257C147.818 436.083 145.152 437.486 144.801 434.958C144.45 432.431 154.128 429.206 154.128 424.159C154.128 419.111 149.921 415.884 148.098 414.902C146.275 413.92 148.937 408.594 143.536 408.665Z" fill="#555DB1"/>
<path d="M140.102 418.622C140.102 418.622 134.421 442.605 132.599 446.812C130.776 451.02 123.342 463.502 123.342 463.502" stroke="#38171A" stroke-miterlimit="10" stroke-linecap="round"/>
<path d="M133.58 443.868L140.662 438.538" stroke="#38171A" stroke-miterlimit="10" stroke-linecap="round"/>
<path d="M138.348 425.705L145.782 420.095" stroke="#38171A" stroke-miterlimit="10" stroke-linecap="round"/>
<path d="M136.806 432.086L133.019 427.668" stroke="#38171A" stroke-miterlimit="10" stroke-linecap="round"/>
<path d="M303.902 434.549L305.21 443.316C305.21 443.316 305.727 446 311.49 446C317.253 446 318.138 443.177 318.138 443.177L319.647 434.191L311.566 435.468L303.902 434.549Z" fill="#DB5461"/>
<path d="M319.829 431.694V434.224C319.829 434.425 319.774 434.623 319.67 434.794C319.565 434.966 319.416 435.106 319.237 435.199C318.189 435.746 315.734 436.743 311.765 436.743C307.893 436.743 305.427 435.969 304.316 435.518C304.114 435.436 303.941 435.295 303.818 435.115C303.696 434.934 303.631 434.721 303.63 434.503V431.697" fill="#DB5461"/>
<path d="M311.73 433.938C316.203 433.938 319.829 432.95 319.829 431.73C319.829 430.51 316.203 429.521 311.73 429.521C307.257 429.521 303.631 430.51 303.631 431.73C303.631 432.95 307.257 433.938 311.73 433.938Z" fill="#FFCED3"/>
<path d="M311.766 433.553C315.58 433.553 318.673 432.799 318.673 431.869C318.673 430.94 315.58 430.186 311.766 430.186C307.951 430.186 304.858 430.94 304.858 431.869C304.858 432.799 307.951 433.553 311.766 433.553Z" fill="#38171A"/>
<path d="M282.523 390.671C282.734 389.058 278.386 380.359 284.346 379.101C288.66 378.187 291.69 383.742 293.033 386.878C293.603 388.207 294.498 389.371 295.636 390.262C296.955 391.297 298.655 392.768 299.564 394.107C301.177 396.492 301.808 401.401 301.808 401.61C301.808 401.82 305.591 404.135 306.86 406.8C308.129 409.464 305.808 414.514 306.37 416.197C306.931 417.88 309.735 418.511 308.823 421.103C307.91 423.695 305.542 424.768 305.542 424.768C305.542 424.768 299.423 424.543 296.969 423.982C295.184 423.574 293.769 418.79 293.131 416.21C292.868 415.146 292.233 414.211 291.342 413.574C289.114 411.983 286.169 411.008 285.047 408.904C283.926 406.801 286.52 403.785 286.169 401.962C285.818 400.139 281.401 396.633 281.05 394.88C280.699 393.126 282.313 392.286 282.523 390.671Z" fill="#E0E7FF"/>
<path d="M310.432 431.694C310.432 431.694 300.615 418.09 296.057 410.304C291.5 402.517 286.801 389.55 286.801 389.55" stroke="#38171A" stroke-miterlimit="10" stroke-linecap="round"/>
<path d="M290.377 398.525L293.743 393.687" stroke="#38171A" stroke-miterlimit="10" stroke-linecap="round"/>
<path d="M298.582 414.444L299.423 409.956" stroke="#38171A" stroke-miterlimit="10" stroke-linecap="round"/>
<path d="M303 421.035L298.582 419.563" stroke="#38171A" stroke-miterlimit="10" stroke-linecap="round"/>
<path d="M294.234 407.01L287.221 406.59" stroke="#38171A" stroke-miterlimit="10" stroke-linecap="round"/>
<path d="M312.536 373C309.591 373 308.819 378.329 307.417 382.817C306.81 384.758 302.511 382.466 300.545 385.061C298.579 387.657 300.896 390.814 300.968 391.302C301.04 391.791 303.844 394.879 303.844 398.596C303.844 402.313 300.545 409.677 300.545 409.677C300.545 409.677 299.283 415.568 301.877 417.25C304.471 418.932 304.963 417.25 307.698 417.25C310.432 417.25 315.057 422.72 318.076 422.72C321.095 422.72 323.686 420.897 324.176 417.25C324.667 413.603 322.354 405.047 320.741 403.645C319.128 402.242 318.217 397.544 318.567 393.827C318.918 390.111 322.848 387.306 322.425 384.504C322.216 383.118 320.93 382.023 319.681 381.27C318.116 380.321 316.903 378.888 316.227 377.187C315.443 375.226 314.188 373 312.536 373Z" fill="#747ABC"/>
<path d="M312.116 385.062C312.116 385.062 310.432 396.352 310.432 404.837C310.432 413.322 312.536 430.853 312.536 430.853" stroke="#38171A" stroke-miterlimit="10" stroke-linecap="round"/>
<path d="M310.994 394.318L315.903 388.357" stroke="#38171A" stroke-miterlimit="10" stroke-linecap="round"/>
<path d="M306.365 398.876L310.433 403.995" stroke="#38171A" stroke-miterlimit="10" stroke-linecap="round"/>
<path d="M315.833 408.904L311.064 416.617" stroke="#38171A" stroke-miterlimit="10" stroke-linecap="round"/>
<path d="M335.536 375.665C332.029 375.71 334.484 379.171 333.292 381.064C332.1 382.957 330.697 380.222 328.664 382.326C326.63 384.43 326.279 389.76 324.527 391.653C322.774 393.546 320.531 393.056 319.549 396.842C318.567 400.628 321.092 401.681 319.549 406.449C318.006 411.217 314.5 412.624 314.5 415.846C314.5 419.068 316.322 422.788 318.216 423.91C320.11 425.033 321.515 422.368 323.968 421.526C326.421 420.684 328.176 421.526 330.49 420.194C332.804 418.861 331.752 415.288 333.295 413.111C334.838 410.935 340.097 407.431 339.957 405.257C339.818 403.083 337.152 404.486 336.801 401.958C336.45 399.431 346.128 396.206 346.128 391.159C346.128 386.111 341.921 382.884 340.098 381.902C338.275 380.92 340.937 375.594 335.536 375.665Z" fill="#555DB1"/>
<path d="M332.102 385.622C332.102 385.622 326.421 409.605 324.599 413.812C322.776 418.02 315.342 430.502 315.342 430.502" stroke="#38171A" stroke-miterlimit="10" stroke-linecap="round"/>
<path d="M325.58 410.868L332.662 405.538" stroke="#38171A" stroke-miterlimit="10" stroke-linecap="round"/>
<path d="M330.348 392.705L337.782 387.095" stroke="#38171A" stroke-miterlimit="10" stroke-linecap="round"/>
<path d="M328.806 399.086L325.019 394.668" stroke="#38171A" stroke-miterlimit="10" stroke-linecap="round"/>
<path opacity="0.2" d="M37 220C37 223.385 34.4691 226 31.5 226C28.5309 226 26 223.385 26 220C26 216.615 28.5309 214 31.5 214C34.4691 214 37 216.615 37 220Z" stroke="#DB5461" stroke-width="2"/>
<circle opacity="0.2" cx="89" cy="157" r="4" stroke="#555DB1" stroke-width="2"/>
<path opacity="0.5" d="M110.096 151.247L113.886 152.14L113.66 153.098L109.87 152.205L108.898 156.328L107.863 156.084L108.835 151.96L105.123 151.085L105.348 150.127L109.061 151.002L110.001 147.016L111.036 147.26L110.096 151.247Z" fill="#FFCED3"/>
<path opacity="0.2" d="M19.9944 120.983L26.7686 124.824L25.7976 126.537L19.0234 122.696L14.8449 130.067L12.9946 129.018L17.1731 121.647L10.5365 117.885L11.5075 116.172L18.1441 119.934L22.1839 112.809L24.0342 113.857L19.9944 120.983Z" fill="#555DB1"/>
<circle opacity="0.2" cx="320.5" cy="158.5" r="11" stroke="#555DB1" stroke-width="3"/>
<circle opacity="0.2" cx="337.5" cy="34.5" r="5.5" stroke="#DB5461" stroke-width="2"/>
<path opacity="0.2" d="M32.9311 20.5068L37.9839 21.6985L37.6826 22.976L32.6298 21.7842L31.3331 27.2818L29.953 26.9563L31.2497 21.4587L26.2996 20.2912L26.6009 19.0137L31.551 20.1813L32.8046 14.8662L34.1847 15.1917L32.9311 20.5068Z" fill="#DB5461"/>
<path opacity="0.2" d="M175.641 135.409L180.156 144.759L177.792 145.901L173.277 136.551L163.104 141.464L161.871 138.91L172.044 133.997L167.62 124.838L169.984 123.696L174.408 132.856L184.243 128.106L185.476 130.66L175.641 135.409Z" fill="#DB5461"/>
<defs>
<linearGradient id="paint0_linear" x1="253.103" y1="398.538" x2="257.026" y2="391.744" gradientUnits="userSpaceOnUse">
<stop offset="0.41" stop-color="#FFEBDA"/>
<stop offset="1" stop-color="#FFCEA9"/>
</linearGradient>
<linearGradient id="paint1_linear" x1="228.132" y1="431.584" x2="235.945" y2="418.051" gradientUnits="userSpaceOnUse">
<stop offset="0.55" stop-color="#FFEBDA"/>
<stop offset="0.78" stop-color="#FFEAD8"/>
<stop offset="0.87" stop-color="#FFE6D1"/>
<stop offset="0.93" stop-color="#FFDFC6"/>
<stop offset="0.98" stop-color="#FFD5B5"/>
<stop offset="1" stop-color="#FFCEA9"/>
</linearGradient>
<linearGradient id="paint2_linear" x1="-2231.61" y1="10721.3" x2="-2951.81" y2="10721.3" gradientUnits="userSpaceOnUse">
<stop offset="0.55" stop-color="#FFEBDA"/>
<stop offset="0.78" stop-color="#FFEAD8"/>
<stop offset="0.87" stop-color="#FFE6D1"/>
<stop offset="0.93" stop-color="#FFDFC6"/>
<stop offset="0.98" stop-color="#FFD5B5"/>
<stop offset="1" stop-color="#FFCEA9"/>
</linearGradient>
</defs>
</svg>
