<svg width="39" height="39" viewBox="0 0 39 39" fill="none" xmlns="http://www.w3.org/2000/svg">
<circle cx="19.5" cy="19.5" r="19.5" fill="#7278BC"/>
<path d="M29.9286 13.0114C29.1583 13.3527 28.3318 13.5842 27.4634 13.6875C28.3501 13.1565 29.0288 12.3143 29.3505 11.3139C28.5188 11.8056 27.6007 12.1626 26.6224 12.3562C25.8391 11.5205 24.7248 11 23.4889 11C21.1179 11 19.1955 12.9225 19.1955 15.2922C19.1955 15.6283 19.2334 15.9565 19.3066 16.2704C15.739 16.0912 12.5755 14.382 10.4582 11.7847C10.088 12.4176 9.8775 13.1552 9.8775 13.9425C9.8775 15.4321 10.636 16.7464 11.7869 17.5154C11.0833 17.4919 10.4215 17.2983 9.8422 16.9766V17.0302C9.8422 19.1096 11.3226 20.845 13.2856 21.24C12.926 21.3368 12.5467 21.3904 12.1544 21.3904C11.8771 21.3904 11.609 21.3629 11.3462 21.3106C11.8928 23.0173 13.4779 24.2584 15.3559 24.2924C13.8872 25.4433 12.0354 26.1272 10.024 26.1272C9.67744 26.1272 9.33609 26.1063 9 26.0684C10.9002 27.2886 13.1562 28 15.5808 28C23.4785 28 27.7956 21.4584 27.7956 15.7852L27.7812 15.2294C28.6247 14.6278 29.3544 13.8719 29.9286 13.0114Z" fill="white"/>
</svg>
